<svg width="31" height="30" viewBox="0 0 31 30" fill="none" xmlns="http://www.w3.org/2000/svg">
<path d="M1.1767 28.5242C0.719257 28.0895 0.462268 27.4998 0.462268 26.885C0.462268 26.2702 0.719257 25.6806 1.1767 25.2458L22.3056 5.16576L7.49668 5.16713C6.84863 5.16713 6.22712 4.92247 5.76888 4.48698C5.31064 4.05148 5.0532 3.46083 5.0532 2.84495C5.0532 2.22906 5.31064 1.63841 5.76888 1.20291C6.22712 0.767418 6.84863 0.522762 7.49668 0.522762L28.1943 0.522764C28.5154 0.522234 28.8334 0.581937 29.1301 0.69845C29.4268 0.814963 29.6964 0.985994 29.9234 1.20173C30.1504 1.41747 30.3303 1.67368 30.4529 1.95566C30.5755 2.23764 30.6384 2.53984 30.6378 2.84495L30.6378 22.5152C30.6378 22.8202 30.5746 23.1221 30.4518 23.4039C30.329 23.6856 30.149 23.9416 29.9221 24.1572C29.6952 24.3729 29.4259 24.5439 29.1294 24.6606C28.833 24.7773 28.5152 24.8374 28.1943 24.8374C27.8735 24.8374 27.5557 24.7773 27.2593 24.6606C26.9628 24.5439 26.6934 24.3729 26.4665 24.1572C26.2396 23.9416 26.0597 23.6856 25.9369 23.4039C25.8141 23.1221 25.7509 22.8202 25.7509 22.5152L25.7552 8.44414L4.62631 28.5242C4.16887 28.9589 3.54844 29.2032 2.90151 29.2032C2.25458 29.2032 1.63415 28.9589 1.1767 28.5242Z" fill="#EEC847"/>
</svg>
